<?xml version="1.0" encoding="utf-8"?>
<!-- Generator: Adobe Illustrator 23.0.3, SVG Export Plug-In . SVG Version: 6.00 Build 0)  -->
<svg version="1.1" id="Layer_1" xmlns="http://www.w3.org/2000/svg" xmlns:xlink="http://www.w3.org/1999/xlink" x="0px" y="0px"
	 viewBox="0 0 512 512" style="enable-background:new 0 0 512 512;" xml:space="preserve">
<style type="text/css">
	.st0{fill:#FFFFFF;}
</style>
<rect class="st0" width="512" height="512"/>
<path d="M468.7,148.8c-5.2-18.8-19.9-33.4-38.6-38.6c-34.6-9.3-173.9-9.3-173.9-9.3s-138.9-0.2-173.9,9.3
	c-18.8,5.2-33.4,19.9-38.6,38.6c-6.6,35.4-9.8,71.4-9.7,107.4c-0.1,35.9,3.1,71.7,9.7,107c5.2,18.8,19.9,33.4,38.6,38.6
	c34.6,9.3,173.9,9.3,173.9,9.3s138.9,0,173.9-9.3c18.8-5.2,33.4-19.9,38.6-38.6c6.4-35.3,9.5-71.1,9.3-107
	C478.3,220.2,475.2,184.2,468.7,148.8z M211.7,322.7V189.5l115.9,66.7L211.7,322.7z"/>
</svg>
